<svg width="55" height="55" viewBox="0 0 85 85" fill="none" xmlns="http://www.w3.org/2000/svg">
<path d="M21.25 74.375C20.2465 74.375 19.4054 74.0356 18.7266 73.3568C18.0477 72.678 17.7083 71.8368 17.7083 70.8334V63.573C16.6458 62.3924 15.7899 61.079 15.1406 59.6329C14.4913 58.1867 14.1667 56.6077 14.1667 54.8959V21.25C14.1667 16.3507 16.4392 12.7648 20.9844 10.4922C25.5295 8.21966 32.7014 7.08337 42.5 7.08337C52.6528 7.08337 59.9132 8.17539 64.2813 10.3594C68.6493 12.5434 70.8333 16.1737 70.8333 21.25V54.8959C70.8333 56.6077 70.5087 58.1867 69.8594 59.6329C69.2101 61.079 68.3542 62.3924 67.2917 63.573V70.8334C67.2917 71.8368 66.9523 72.678 66.2734 73.3568C65.5946 74.0356 64.7535 74.375 63.75 74.375H60.2083C59.2049 74.375 58.3637 74.0356 57.6849 73.3568C57.0061 72.678 56.6667 71.8368 56.6667 70.8334V67.2917H28.3333V70.8334C28.3333 71.8368 27.9939 72.678 27.3151 73.3568C26.6363 74.0356 25.7951 74.375 24.7917 74.375H21.25ZM21.25 35.4167H63.75V24.7917H21.25V35.4167ZM30.1042 56.6667C31.5799 56.6667 32.8342 56.1502 33.8672 55.1172C34.9002 54.0842 35.4167 52.8299 35.4167 51.3542C35.4167 49.8785 34.9002 48.6242 33.8672 47.5912C32.8342 46.5582 31.5799 46.0417 30.1042 46.0417C28.6285 46.0417 27.3741 46.5582 26.3412 47.5912C25.3082 48.6242 24.7917 49.8785 24.7917 51.3542C24.7917 52.8299 25.3082 54.0842 26.3412 55.1172C27.3741 56.1502 28.6285 56.6667 30.1042 56.6667ZM54.8958 56.6667C56.3715 56.6667 57.6259 56.1502 58.6589 55.1172C59.6918 54.0842 60.2083 52.8299 60.2083 51.3542C60.2083 49.8785 59.6918 48.6242 58.6589 47.5912C57.6259 46.5582 56.3715 46.0417 54.8958 46.0417C53.4201 46.0417 52.1658 46.5582 51.1328 47.5912C50.0998 48.6242 49.5833 49.8785 49.5833 51.3542C49.5833 52.8299 50.0998 54.0842 51.1328 55.1172C52.1658 56.1502 53.4201 56.6667 54.8958 56.6667ZM22.8438 17.7084H62.5104C61.625 16.7049 59.7214 15.8638 56.7995 15.1849C53.8776 14.5061 49.1701 14.1667 42.6771 14.1667C36.3611 14.1667 31.7422 14.5356 28.8203 15.2735C25.8984 16.0113 23.9063 16.823 22.8438 17.7084ZM28.3333 60.2084H56.6667C58.6146 60.2084 60.2821 59.5148 61.6693 58.1276C63.0564 56.7405 63.75 55.073 63.75 53.125V42.5H21.25V53.125C21.25 55.073 21.9436 56.7405 23.3307 58.1276C24.7179 59.5148 26.3854 60.2084 28.3333 60.2084Z" fill="#FAA72B"/>
</svg>
