<svg width="20" height="20" viewBox="0 0 20 20" fill="none" xmlns="http://www.w3.org/2000/svg">
<path d="M10 18.3334C9.80558 18.3334 9.63891 18.2778 9.50002 18.1667C9.36113 18.0556 9.25697 17.9097 9.18752 17.7292C8.92363 16.9514 8.5903 16.2222 8.18752 15.5417C7.79863 14.8611 7.25002 14.0625 6.54169 13.1459C5.83335 12.2292 5.25696 11.3542 4.81252 10.5209C4.38196 9.68752 4.16669 8.68058 4.16669 7.50002C4.16669 5.87502 4.72919 4.50002 5.85419 3.37502C6.99308 2.23613 8.37502 1.66669 10 1.66669C11.625 1.66669 13 2.23613 14.125 3.37502C15.2639 4.50002 15.8334 5.87502 15.8334 7.50002C15.8334 8.76391 15.5903 9.81946 15.1042 10.6667C14.632 11.5 14.0834 12.3264 13.4584 13.1459C12.7084 14.1459 12.1389 14.9792 11.75 15.6459C11.375 16.2986 11.0625 16.9931 10.8125 17.7292C10.7431 17.9236 10.632 18.0764 10.4792 18.1875C10.3403 18.2847 10.1806 18.3334 10 18.3334ZM10 9.58335C10.5834 9.58335 11.0764 9.38196 11.4792 8.97919C11.882 8.57641 12.0834 8.08335 12.0834 7.50002C12.0834 6.91669 11.882 6.42363 11.4792 6.02085C11.0764 5.61808 10.5834 5.41669 10 5.41669C9.41669 5.41669 8.92363 5.61808 8.52085 6.02085C8.11808 6.42363 7.91669 6.91669 7.91669 7.50002C7.91669 8.08335 8.11808 8.57641 8.52085 8.97919C8.92363 9.38196 9.41669 9.58335 10 9.58335Z" fill="white"/>
</svg>
